<?xml version="1.0" encoding="utf-8"?>
<!-- Generator: Adobe Illustrator 24.3.0, SVG Export Plug-In . SVG Version: 6.00 Build 0)  -->
<svg version="1.1" id="Warstwa_1" xmlns="http://www.w3.org/2000/svg" xmlns:xlink="http://www.w3.org/1999/xlink" x="0px" y="0px"
	 viewBox="0 0 256 256" style="enable-background:new 0 0 256 256;" xml:space="preserve">
<style type="text/css">
	.st0{fill:none;stroke:#E3EBEA;stroke-width:6;stroke-miterlimit:10;}
	.st1{fill:none;stroke:#E3EBEA;stroke-width:12;stroke-miterlimit:10;}
	.st2{fill:none;stroke:#E3EBEA;stroke-width:19;stroke-miterlimit:10;}
</style>
<path class="st0" d="M211.32,241H48.37c-6.6,0-12-5.4-12-12V28.66c0-6.6,5.4-12,12-12h162.95c6.6,0,12,5.4,12,12V229
	C223.32,235.6,217.92,241,211.32,241z"/>
<path class="st0" d="M74.52,115.69H62.64c-6.6,0-12-5.4-12-12V91.82c0-6.6,5.4-12,12-12h11.87c6.6,0,12,5.4,12,12v11.87
	C86.52,110.29,81.12,115.69,74.52,115.69z"/>
<path class="st0" d="M74.52,171.02H62.64c-6.6,0-12-5.4-12-12v-11.87c0-6.6,5.4-12,12-12h11.87c6.6,0,12,5.4,12,12v11.87
	C86.52,165.62,81.12,171.02,74.52,171.02z"/>
<path class="st0" d="M74.52,226.35H62.64c-6.6,0-12-5.4-12-12v-11.87c0-6.6,5.4-12,12-12h11.87c6.6,0,12,5.4,12,12v11.87
	C86.52,220.95,81.12,226.35,74.52,226.35z"/>
<line class="st1" x1="102.06" y1="98.48" x2="206.14" y2="98.48"/>
<line class="st1" x1="102.06" y1="153.45" x2="206.14" y2="153.45"/>
<line class="st1" x1="102.06" y1="208.41" x2="206.14" y2="208.41"/>
<line class="st0" x1="53.44" y1="112.9" x2="82.26" y2="84.07"/>
<line class="st0" x1="54.17" y1="167.5" x2="82.99" y2="138.67"/>
<line class="st0" x1="53.47" y1="82.65" x2="82.3" y2="111.47"/>
<line class="st0" x1="54.17" y1="138.67" x2="82.99" y2="167.5"/>
<line class="st2" x1="61.88" y1="44.96" x2="197.8" y2="44.96"/>
</svg>
